<svg fill="#ffffff" xmlns="http://www.w3.org/2000/svg" width="512" height="512" viewBox="0 0 512 512"><path d="M 91 66 C 82.729 66 76 72.729 76 81 C 76 89.271 82.729 96 91 96 C 99.271 96 106 89.271 106 81 C 106 72.729 99.271 66 91 66 z M 441 66 C 427.215 66 416 77.215 416 91 C 416 104.785 427.215 116 441 116 C 454.785 116 466 104.785 466 91 C 466 77.215 454.785 66 441 66 z M 284.45312 72.751953 C 245.76513 72.751953 211.00297 98.612625 199.91797 135.64062 C 199.52397 136.95663 198.60495 138.05388 197.37695 138.67188 C 196.15095 139.28987 194.72069 139.3762 193.42969 138.9082 C 186.07669 136.2542 178.36109 134.9082 170.49609 134.9082 C 134.57109 134.9082 105.11766 163.11592 103.09766 198.54492 C 122.62166 197.32092 142.0512 203.71966 157.0332 216.47266 C 159.1362 218.26266 159.39056 221.41753 157.60156 223.51953 C 156.61256 224.68153 155.20602 225.2793 153.79102 225.2793 C 152.64502 225.2793 151.49373 224.88789 150.55273 224.08789 C 136.51973 212.14189 117.9878 206.60077 99.716797 208.88477 C 99.608797 208.89877 99.503484 208.88658 99.396484 208.89258 C 99.291484 208.92258 99.193937 208.96528 99.085938 208.98828 C 68.326937 215.69028 46 243.42927 46 274.94727 C 46 313.17227 76.918578 345.4668 113.51758 345.4668 C 113.86958 345.4668 126.112 345.65936 136 345.81836 L 136 317.5 C 136 300.131 150.131 286 167.5 286 L 274.5 286 C 291.869 286 306 300.131 306 317.5 L 306 345.89648 L 333.98633 345.87305 C 366.10333 332.45605 386.03284 312.59073 393.21484 286.80273 C 398.65584 267.26473 394.40728 251.33573 394.36328 251.17773 C 393.63428 248.51973 395.1897 245.7653 397.8457 245.0293 C 400.5047 244.2943 403.25114 245.83819 403.99414 248.49219 C 404.20114 249.23119 408.99719 266.85094 402.99219 288.96094 C 398.38719 305.91594 386.43563 328.28544 356.39062 345.89844 C 363.72663 345.94044 374.91341 346.00391 377.69141 346.00391 C 425.52041 346.00391 465.92773 303.97742 465.92773 254.23242 C 465.93073 205.21042 425.52236 163.79688 377.69336 163.79688 C 377.46336 163.79688 377.24253 163.75852 377.01953 163.72852 C 376.79653 163.75852 376.5767 163.79688 376.3457 163.79688 C 350.5597 163.79688 326.34978 175.21972 309.92578 195.13672 C 308.93778 196.33572 307.50741 196.95508 306.06641 196.95508 C 304.94641 196.95508 303.82067 196.5815 302.88867 195.8125 C 300.75767 194.0555 300.45394 190.90444 302.21094 188.77344 C 319.73294 167.52344 345.19873 154.94691 372.55273 153.87891 C 370.02173 108.00391 332.23913 72.751953 284.45312 72.751953 z M 167.5 296 C 155.645 296 146 305.645 146 317.5 L 146 350.95508 C 146 350.96308 146.00195 350.97152 146.00195 350.97852 C 146.00195 350.98452 146 350.98814 146 350.99414 L 146 424.5 C 146 436.355 155.645 446 167.5 446 L 274.5 446 C 286.355 446 296 436.355 296 424.5 L 296 350.93164 C 296 350.92064 295.99609 350.91134 295.99609 350.90234 C 295.99609 350.89334 296 350.88205 296 350.87305 L 296 317.5 C 296 305.645 286.355 296 274.5 296 L 167.5 296 z M 221.00195 326.00195 C 221.32995 326.00195 221.65747 326.03511 221.98047 326.09961 C 222.12947 326.12861 222.26811 326.18356 222.41211 326.22656 C 222.58011 326.27656 222.75006 326.31581 222.91406 326.38281 C 223.08406 326.45381 223.23844 326.54967 223.39844 326.63867 C 223.52344 326.70667 223.65344 326.7618 223.77344 326.8418 C 224.04844 327.0258 224.30606 327.2348 224.53906 327.4668 L 254.53711 357.46484 C 256.48711 359.41684 256.48716 362.58316 254.53516 364.53516 C 253.55816 365.51216 252.28 366 251 366 C 249.72 366 248.44184 365.51216 247.46484 364.53516 L 226 343.07031 L 226 421 C 226 423.762 223.761 426 221 426 C 218.239 426 216 423.762 216 421 L 216 343.07031 L 194.53516 364.53516 C 192.58216 366.48816 189.41784 366.48816 187.46484 364.53516 C 185.51184 362.58316 185.51184 359.41684 187.46484 357.46484 L 217.46484 327.4668 C 217.69784 327.2348 217.95352 327.0258 218.22852 326.8418 C 218.34852 326.7618 218.47852 326.70767 218.60352 326.63867 C 218.76452 326.55067 218.91884 326.45381 219.08984 326.38281 C 219.25384 326.31581 219.4238 326.27656 219.5918 326.22656 C 219.7368 326.18356 219.87444 326.12861 220.02344 326.09961 C 220.34644 326.03511 220.67395 326.00195 221.00195 326.00195 z"></path></svg>